<svg xmlns="http://www.w3.org/2000/svg" version="1.0" width="1428" height="556" viewBox="0 0 1071 417">
  <path d="M395.808 13.711c-16.1 1.9-24.9 5.6-34.6 14.2-15.6 13.9-15.2 31.9 1.1 47.7 2.6 2.5 4 4.8 4 6.4 0 1.4.7 3.6 1.6 4.9 1.4 2 2.2 2.2 5.4 1.7 4.2-.7 10.4 1.4 11.3 3.8.3.8 1.9 1.7 3.6 2.1 1.6.3 3.7 1.7 4.5 3.1 1.2 1.8 2.5 2.4 5.2 2.4 3.4 0 10.7-3 11.9-5 .3-.5 1.5-1.5 2.5-2 1.7-.9 2.2-.5 3.9 2.7 1 2.1 2.4 5.6 3 7.7 1 3.8.8 4.3-3.8 12-2.7 4.5-6.7 11.6-9.1 15.8l-4.2 7.8h-7.1c-4 0-13.3 1.1-20.7 2.4-7.4 1.3-19.1 3.4-26 4.6-16.7 3-26.8 2.5-30.6-1.3-3.2-3.2-8.6-3.6-15.4-1.2-2.3.8-4.4 1.5-4.6 1.5-.2 0-.4-.7-.4-1.5 0-1.8-3-2-5.4-.2-1.1.8-1.7 2.2-1.4 3.8.2 1.3-.3 2.9-1.2 3.6-1.3 1-1.2 1.7.7 5.5 1.2 2.3 4 6.3 6.3 8.6 2.2 2.4 4 4.8 4 5.2 0 1.3 6.9 3 12.3 3 2.6 0 14.1 1.3 25.5 3 11.4 1.6 24.8 3.2 29.7 3.5 14.9 1 21.5 4.8 23.1 13.3.6 3.1-.8 13.7-1.9 14.8-.2.2-1.9-.1-3.8-.7-16.7-4.9-39.7-7.2-58.6-5.8-30.3 2.3-57.8 12.1-79.5 28.4-19 14.3-31.3 31.2-38.4 52.5-2.6 7.8-2.8 9.7-2.8 24s.2 16.2 2.8 24c14.6 44.1 56.2 73.8 113.1 80.6 29.4 3.6 62.2-2.2 89-15.7 58.9-29.6 78.8-89.9 46-138.8-9.3-13.9-26.8-29-44-38.1-4.4-2.3-8.2-4.3-8.4-4.5-.7-.8 3.2-13.5 4.6-14.7 1.1-.9 2.1-.5 4.6 1.9 4.9 4.5 48.5 46.1 75.2 71.8 13.2 12.7 25.9 24.8 28.2 26.9l4.2 3.9-3 2.8c-5.4 5-7.4 11.1-7.4 22.4 0 9 .3 10.7 2.7 15.2 2.5 5 2.6 5.2.8 8-1 1.6-4.7 6.6-8.4 11.1-9.4 11.7-8.7 15.2 2.9 15.2 8.2 0 37.7-13.1 39.8-17.7.9-1.9 1.6-2.2 4.1-1.8 5 1 16.6-1.3 23.1-4.5 5.8-2.8 14.5-10.2 14.5-12.4 0-.6 1.5 1.6 3.3 4.9 16.2 29.9 48.1 52.3 86.7 60.9 25 5.5 46.4 5.7 71.4.5 41.4-8.6 76.2-33.9 91.2-66.3 10-21.8 10-49.4 0-71.2-21.1-45.5-77.6-73.8-138.5-69.3-21.3 1.6-42.7 7.5-60 16.4l-8.4 4.4-8.2-7c-12.7-10.7-19.5-20.5-19.5-28.1.1-7.7 9.9-21.2 25.2-34.7 8.6-7.6 10-8.4 18.5-11 5-1.6 11.7-3.5 14.7-4.2 3.1-.7 5.6-1.6 5.6-2 0-1.6-4.5-3.7-9.3-4.4l-4.8-.7 2.4-2.7c4-4.3 5.1-7.3 5-14.1-.1-6.6-2.1-13.3-6.5-21.5-17.2-32-67.7-52.8-139.3-57.4-8.8-.6-19.4-1.3-23.5-1.5-4.1-.3-9.5-.8-12-1.2-6.7-.9-12.7 1.1-17.4 5.8-3.8 3.8-4.3 4-8.8 3.6-5.7-.6-7.8-2.1-7.8-5.8 0-4.2 4.4-7.2 17.1-12.2l11.2-4.3-5.3-1.2c-12.1-2.7-33-4.3-53.6-4.2-11.5.1-22.2.4-23.9.6zm132.5 97.2c-34.9 11.6-57.4 22.9-63.5 31.9-6.2 9.2-.7 19.7 16.1 30.9 3 2 5.3 3.7 5.2 3.8-.5.3-50.7-1.3-59-2-8.5-.6-10.8-1.2-10.8-2.7 0-.6 7.3-8.5 16.3-17.7l16.4-16.6 8.1-16 8.1-16.1 21.3.4c11.9.2 23.1-.1 25.3-.6 2.2-.6 10.8-1 19-1l15-.1zm-17 82.9c2.5 1.4 7.1 4.1 10.2 5.9l5.8 3.4-3.2 4c-2.7 3.4-3.2 4.8-3.2 9.2 0 5.7 1.7 9.6 7.4 17.2 3.4 4.6 3.7 5.7 4.4 14 1.2 14.9 3.6 30.6 5.7 36.9 2.9 8.5.9 11.4-4.2 6-1.3-1.5-16.3-15.1-33.4-30.4-17-15.2-35.4-31.9-40.9-37.1-5.4-5.2-10.5-9.8-11.2-10.2-2.5-1.4-18.4-19.8-18.4-21.2 0-1.1 6.6-1.3 38.3-.8l38.2.6zM902.936 201.056c-8.4.2-15.3.5-15.3.7 0 .2-4.5 45.9-10 101.6-5.5 55.6-10 101.8-10 102.6 0 1.2 3.4 1.4 19.9 1.4h20l.5-4.3c.3-2.3 2.9-33.7 5.6-69.6 2.8-36 5.3-65.7 5.5-66 .3-.2.5-.1.5.4 0 .8 24.4 126.4 26.1 134.7l1.1 4.8h28.6l.6-2.7c.4-1.6 6.2-32.9 13.1-69.7 6.8-36.7 12.6-67 12.7-67.2.2-.2 2.7 29.5 5.6 65.9 2.9 36.4 5.5 67.9 5.8 69.9l.6 3.8h20.9c16.1 0 20.9-.3 20.9-1.3 0-2.9-21.1-203.3-21.5-204.5-.3-1-6.4-1.2-27.7-1l-27.3.3-5.7 31.5c-3.1 17.3-7.4 42.9-9.5 56.8-2 14-3.9 25-4 24.5-.1-.4-1.9-11.6-3.8-24.8-3.5-23.1-13-81.6-14-86.3-.6-2.5 3.4-2.3-39.2-1.5zM23.308 226.511v21.5h39.6c33.6 0 39.5.2 39.1 1.4-.3.8-21.1 35.9-46.1 78-25.1 42.1-45.6 77.1-45.6 77.6 0 1.2 85.3 1.4 142.3.3l36.7-.6v-41.7l-42.9-.2-42.9-.3 46.9-78.4c25.8-43.1 46.9-78.5 46.9-78.7 0-.2-39.1-.4-87-.4h-87z" stroke="#161616" stroke-width=".1" fill="#d4af37"/>
</svg>
