<?xml version="1.0" standalone="no"?>
<!DOCTYPE svg PUBLIC "-//W3C//DTD SVG 20010904//EN"
 "http://www.w3.org/TR/2001/REC-SVG-20010904/DTD/svg10.dtd">
<svg version="1.0" xmlns="http://www.w3.org/2000/svg"
 width="1071.000000pt" height="417.000000pt" viewBox="0 0 1071.000000 417.000000"
 preserveAspectRatio="xMidYMid meet">

<g transform="translate(0.000000,417.000000) scale(0.100000,-0.100000)"
fill="#000000" stroke="none">
<path d="M3955 4073 c-161 -19 -249 -56 -346 -142 -156 -139 -152 -319 11
-477 26 -25 40 -48 40 -64 0 -14 7 -36 16 -49 14 -20 22 -22 54 -17 42 7 104
-14 113 -38 3 -8 19 -17 36 -21 16 -3 37 -17 45 -31 12 -18 25 -24 52 -24 34
0 107 30 119 50 3 5 15 15 25 20 17 9 22 5 39 -27 10 -21 24 -56 30 -77 10
-38 8 -43 -38 -120 -27 -45 -67 -116 -91 -158 l-42 -78 -71 0 c-40 0 -133 -11
-207 -24 -74 -13 -191 -34 -260 -46 -167 -30 -268 -25 -306 13 -32 32 -86 36
-154 12 -23 -8 -44 -15 -46 -15 -2 0 -4 7 -4 15 0 18 -30 20 -54 2 -11 -8 -17
-22 -14 -38 2 -13 -3 -29 -12 -36 -13 -10 -12 -17 7 -55 12 -23 40 -63 63 -86
22 -24 40 -48 40 -52 0 -13 69 -30 123 -30 26 0 141 -13 255 -30 114 -16 248
-32 297 -35 149 -10 215 -48 231 -133 6 -31 -8 -137 -19 -148 -2 -2 -19 1 -38
7 -167 49 -397 72 -586 58 -303 -23 -578 -121 -795 -284 -190 -143 -313 -312
-384 -525 -26 -78 -28 -97 -28 -240 0 -143 2 -162 28 -240 146 -441 562 -738
1131 -806 294 -36 622 22 890 157 589 296 788 899 460 1388 -93 139 -268 290
-440 381 -44 23 -82 43 -84 45 -7 8 32 135 46 147 11 9 21 5 46 -19 49 -45
485 -461 752 -718 132 -127 259 -248 282 -269 l42 -39 -30 -28 c-54 -50 -74
-111 -74 -224 0 -90 3 -107 27 -152 25 -50 26 -52 8 -80 -10 -16 -47 -66 -84
-111 -94 -117 -87 -152 29 -152 82 0 377 131 398 177 9 19 16 22 41 18 50 -10
166 13 231 45 58 28 145 102 145 124 0 6 15 -16 33 -49 162 -299 481 -523 867
-609 250 -55 464 -57 714 -5 414 86 762 339 912 663 100 218 100 494 0 712
-211 455 -776 738 -1385 693 -213 -16 -427 -75 -600 -164 l-84 -44 -82 70
c-127 107 -195 205 -195 281 1 77 99 212 252 347 86 76 100 84 185 110 50 16
117 35 147 42 31 7 56 16 56 20 0 16 -45 37 -93 44 l-48 7 24 27 c40 43 51 73
50 141 -1 66 -21 133 -65 215 -172 320 -677 528 -1393 574 -88 6 -194 13 -235
15 -41 3 -95 8 -120 12 -67 9 -127 -11 -174 -58 -38 -38 -43 -40 -88 -36 -57
6 -78 21 -78 58 0 42 44 72 171 122 l112 43 -53 12 c-121 27 -330 43 -536 42
-115 -1 -222 -4 -239 -6z m1325 -972 c-349 -116 -574 -229 -635 -319 -62 -92
-7 -197 161 -309 30 -20 53 -37 52 -38 -5 -3 -507 13 -590 20 -85 6 -108 12
-108 27 0 6 73 85 163 177 l164 166 81 160 81 161 213 -4 c119 -2 231 1 253 6
22 6 108 10 190 10 l150 1 -175 -58z m-170 -829 c25 -14 71 -41 102 -59 l58
-34 -32 -40 c-27 -34 -32 -48 -32 -92 0 -57 17 -96 74 -172 34 -46 37 -57 44
-140 12 -149 36 -306 57 -369 29 -85 9 -114 -42 -60 -13 15 -163 151 -334 304
-170 152 -354 319 -409 371 -54 52 -105 98 -112 102 -25 14 -184 198 -184 212
0 11 66 13 383 8 l382 -6 45 -25z"/>
<path d="M9013 2173 c-84 -2 -153 -5 -153 -7 0 -2 -45 -459 -100 -1016 -55
-556 -100 -1018 -100 -1026 0 -12 34 -14 199 -14 l200 0 5 43 c3 23 29 337 56
696 28 360 53 657 55 660 3 2 5 1 5 -4 0 -8 244 -1264 261 -1347 l11 -48 143
0 143 0 6 27 c4 16 62 329 131 697 68 367 126 670 127 672 2 2 27 -295 56
-659 29 -364 55 -679 58 -699 l6 -38 209 0 c161 0 209 3 209 13 0 29 -211
2033 -215 2045 -3 10 -64 12 -277 10 l-273 -3 -57 -315 c-31 -173 -74 -429
-95 -568 -20 -140 -39 -250 -40 -245 -1 4 -19 116 -38 248 -35 231 -130 816
-140 863 -6 25 34 23 -392 15z"/>
<path d="M230 1945 l0 -215 396 0 c336 0 395 -2 391 -14 -3 -8 -211 -359 -461
-780 -251 -421 -456 -771 -456 -776 0 -12 853 -14 1423 -3 l367 6 0 209 0 208
-429 2 -429 3 469 784 c258 431 469 785 469 787 0 2 -391 4 -870 4 l-870 0 0
-215z"/>
</g>
</svg>
